<?xml version="1.0" encoding="UTF-8" standalone="no"?>
<!DOCTYPE svg PUBLIC "-//W3C//DTD SVG 1.1//EN"
 "http://www.w3.org/Graphics/SVG/1.1/DTD/svg11.dtd">
<!-- Generated by graphviz version 2.47.2 (20210527.1257)
 -->
<!-- Title: snakemake_dag Pages: 1 -->
<svg width="454pt" height="548pt"
 viewBox="0.00 0.00 454.00 548.00" xmlns="http://www.w3.org/2000/svg" xmlns:xlink="http://www.w3.org/1999/xlink">
<g id="graph0" class="graph" transform="scale(1 1) rotate(0) translate(4 544)">
<title>snakemake_dag</title>
<polygon fill="white" stroke="transparent" points="-4,4 -4,-544 450,-544 450,4 -4,4"/>
<!-- 0 -->
<g id="node1" class="node">
<title>0</title>
<path fill="none" stroke="#56a9d8" stroke-width="2" d="M208,-36C208,-36 178,-36 178,-36 172,-36 166,-30 166,-24 166,-24 166,-12 166,-12 166,-6 172,0 178,0 178,0 208,0 208,0 214,0 220,-6 220,-12 220,-12 220,-24 220,-24 220,-30 214,-36 208,-36"/>
<text text-anchor="middle" x="193" y="-15.5" font-family="sans" font-size="10.00">all</text>
</g>
<!-- 1 -->
<g id="node2" class="node">
<title>1</title>
<path fill="none" stroke="#d6d856" stroke-width="2" d="M232,-108C232,-108 154,-108 154,-108 148,-108 142,-102 142,-96 142,-96 142,-84 142,-84 142,-78 148,-72 154,-72 154,-72 232,-72 232,-72 238,-72 244,-78 244,-84 244,-84 244,-96 244,-96 244,-102 238,-108 232,-108"/>
<text text-anchor="middle" x="193" y="-87.5" font-family="sans" font-size="10.00">assign_taxonomy</text>
</g>
<!-- 1&#45;&gt;0 -->
<g id="edge4" class="edge">
<title>1&#45;&gt;0</title>
<path fill="none" stroke="grey" stroke-width="2" d="M193,-71.7C193,-63.98 193,-54.71 193,-46.11"/>
<polygon fill="grey" stroke="grey" stroke-width="2" points="196.5,-46.1 193,-36.1 189.5,-46.1 196.5,-46.1"/>
</g>
<!-- 2 -->
<g id="node3" class="node">
<title>2</title>
<path fill="none" stroke="#56d8d8" stroke-width="2" d="M196,-180C196,-180 116,-180 116,-180 110,-180 104,-174 104,-168 104,-168 104,-156 104,-156 104,-150 110,-144 116,-144 116,-144 196,-144 196,-144 202,-144 208,-150 208,-156 208,-156 208,-168 208,-168 208,-174 202,-180 196,-180"/>
<text text-anchor="middle" x="156" y="-159.5" font-family="sans" font-size="10.00">remove_chimeras</text>
</g>
<!-- 2&#45;&gt;0 -->
<g id="edge7" class="edge">
<title>2&#45;&gt;0</title>
<path fill="none" stroke="grey" stroke-width="2" d="M144.87,-143.69C134.56,-125.31 122.31,-95.71 133,-72 138.41,-60 148.03,-49.63 158,-41.32"/>
<polygon fill="grey" stroke="grey" stroke-width="2" points="160.25,-44.01 166,-35.11 155.95,-38.48 160.25,-44.01"/>
</g>
<!-- 2&#45;&gt;1 -->
<g id="edge10" class="edge">
<title>2&#45;&gt;1</title>
<path fill="none" stroke="grey" stroke-width="2" d="M165.15,-143.7C169.4,-135.64 174.56,-125.89 179.27,-116.98"/>
<polygon fill="grey" stroke="grey" stroke-width="2" points="182.38,-118.58 183.96,-108.1 176.19,-115.31 182.38,-118.58"/>
</g>
<!-- 3 -->
<g id="node4" class="node">
<title>3</title>
<path fill="none" stroke="#56d882" stroke-width="2" d="M200,-252C200,-252 98,-252 98,-252 92,-252 86,-246 86,-240 86,-240 86,-228 86,-228 86,-222 92,-216 98,-216 98,-216 200,-216 200,-216 206,-216 212,-222 212,-228 212,-228 212,-240 212,-240 212,-246 206,-252 200,-252"/>
<text text-anchor="middle" x="149" y="-231.5" font-family="sans" font-size="10.00">derep_denoise_seqtab</text>
</g>
<!-- 3&#45;&gt;0 -->
<g id="edge6" class="edge">
<title>3&#45;&gt;0</title>
<path fill="none" stroke="grey" stroke-width="2" d="M124.07,-215.86C112.94,-206.67 101,-194.29 95,-180 88.81,-165.25 91.86,-159.69 95,-144 101.8,-110.01 103.97,-99.56 125,-72 133.91,-60.32 145.99,-49.8 157.49,-41.27"/>
<polygon fill="grey" stroke="grey" stroke-width="2" points="159.59,-44.08 165.72,-35.43 155.54,-38.37 159.59,-44.08"/>
</g>
<!-- 3&#45;&gt;2 -->
<g id="edge11" class="edge">
<title>3&#45;&gt;2</title>
<path fill="none" stroke="grey" stroke-width="2" d="M150.73,-215.7C151.5,-207.98 152.43,-198.71 153.29,-190.11"/>
<polygon fill="grey" stroke="grey" stroke-width="2" points="156.78,-190.4 154.29,-180.1 149.81,-189.71 156.78,-190.4"/>
</g>
<!-- 4 -->
<g id="node5" class="node">
<title>4</title>
<path fill="none" stroke="#d8ac56" stroke-width="2" d="M183.5,-396C183.5,-396 142.5,-396 142.5,-396 136.5,-396 130.5,-390 130.5,-384 130.5,-384 130.5,-372 130.5,-372 130.5,-366 136.5,-360 142.5,-360 142.5,-360 183.5,-360 183.5,-360 189.5,-360 195.5,-366 195.5,-372 195.5,-372 195.5,-384 195.5,-384 195.5,-390 189.5,-396 183.5,-396"/>
<text text-anchor="middle" x="163" y="-375.5" font-family="sans" font-size="10.00">filter_trim</text>
</g>
<!-- 4&#45;&gt;0 -->
<g id="edge3" class="edge">
<title>4&#45;&gt;0</title>
<path fill="none" stroke="grey" stroke-width="2" d="M132.1,-359.82C95.09,-336.69 38,-291.82 38,-235 38,-235 38,-235 38,-161 38,-97.12 110.47,-54.2 156.31,-33.45"/>
<polygon fill="grey" stroke="grey" stroke-width="2" points="157.89,-36.58 165.65,-29.36 155.08,-30.17 157.89,-36.58"/>
</g>
<!-- 4&#45;&gt;3 -->
<g id="edge12" class="edge">
<title>4&#45;&gt;3</title>
<path fill="none" stroke="grey" stroke-width="2" d="M161.31,-359.87C158.93,-335.67 154.54,-291.21 151.7,-262.39"/>
<polygon fill="grey" stroke="grey" stroke-width="2" points="155.16,-261.8 150.69,-252.19 148.19,-262.48 155.16,-261.8"/>
</g>
<!-- 7 -->
<g id="node8" class="node">
<title>7</title>
<path fill="none" stroke="#56d8a9" stroke-width="2" d="M233.5,-324C233.5,-324 182.5,-324 182.5,-324 176.5,-324 170.5,-318 170.5,-312 170.5,-312 170.5,-300 170.5,-300 170.5,-294 176.5,-288 182.5,-288 182.5,-288 233.5,-288 233.5,-288 239.5,-288 245.5,-294 245.5,-300 245.5,-300 245.5,-312 245.5,-312 245.5,-318 239.5,-324 233.5,-324"/>
<text text-anchor="middle" x="208" y="-303.5" font-family="sans" font-size="10.00">learn_errors</text>
</g>
<!-- 4&#45;&gt;7 -->
<g id="edge16" class="edge">
<title>4&#45;&gt;7</title>
<path fill="none" stroke="grey" stroke-width="2" d="M174.12,-359.7C179.36,-351.56 185.7,-341.69 191.48,-332.7"/>
<polygon fill="grey" stroke="grey" stroke-width="2" points="194.54,-334.41 197,-324.1 188.65,-330.62 194.54,-334.41"/>
</g>
<!-- 5 -->
<g id="node6" class="node">
<title>5</title>
<path fill="none" stroke="#d85656" stroke-width="2" d="M277,-468C277,-468 217,-468 217,-468 211,-468 205,-462 205,-456 205,-456 205,-444 205,-444 205,-438 211,-432 217,-432 217,-432 277,-432 277,-432 283,-432 289,-438 289,-444 289,-444 289,-456 289,-456 289,-462 283,-468 277,-468"/>
<text text-anchor="middle" x="247" y="-447.5" font-family="sans" font-size="10.00">bbduk_primer</text>
</g>
<!-- 5&#45;&gt;0 -->
<g id="edge1" class="edge">
<title>5&#45;&gt;0</title>
<path fill="none" stroke="grey" stroke-width="2" d="M204.82,-444.08C134.27,-433.25 0,-400.36 0,-307 0,-307 0,-307 0,-161 0,-114.73 18.46,-101.62 54,-72 83.46,-47.45 125.51,-33.54 155.63,-26.2"/>
<polygon fill="grey" stroke="grey" stroke-width="2" points="156.79,-29.52 165.75,-23.87 155.22,-22.7 156.79,-29.52"/>
</g>
<!-- 5&#45;&gt;4 -->
<g id="edge14" class="edge">
<title>5&#45;&gt;4</title>
<path fill="none" stroke="grey" stroke-width="2" d="M226.24,-431.7C215.76,-422.97 202.89,-412.24 191.5,-402.75"/>
<polygon fill="grey" stroke="grey" stroke-width="2" points="193.45,-399.82 183.53,-396.1 188.97,-405.19 193.45,-399.82"/>
</g>
<!-- 8 -->
<g id="node9" class="node">
<title>8</title>
<path fill="none" stroke="#d88556" stroke-width="2" d="M344,-324C344,-324 276,-324 276,-324 270,-324 264,-318 264,-312 264,-312 264,-300 264,-300 264,-294 270,-288 276,-288 276,-288 344,-288 344,-288 350,-288 356,-294 356,-300 356,-300 356,-312 356,-312 356,-318 350,-324 344,-324"/>
<text text-anchor="middle" x="310" y="-303.5" font-family="sans" font-size="10.00">quality_profiles</text>
</g>
<!-- 5&#45;&gt;8 -->
<g id="edge17" class="edge">
<title>5&#45;&gt;8</title>
<path fill="none" stroke="grey" stroke-width="2" d="M254.6,-431.87C265.43,-407.46 285.41,-362.43 298.18,-333.64"/>
<polygon fill="grey" stroke="grey" stroke-width="2" points="301.52,-334.75 302.37,-324.19 295.12,-331.91 301.52,-334.75"/>
</g>
<!-- 10 -->
<g id="node11" class="node">
<title>10</title>
<path fill="none" stroke="#59d856" stroke-width="2" d="M420,-252C420,-252 350,-252 350,-252 344,-252 338,-246 338,-240 338,-240 338,-228 338,-228 338,-222 344,-216 350,-216 350,-216 420,-216 420,-216 426,-216 432,-222 432,-228 432,-228 432,-240 432,-240 432,-246 426,-252 420,-252"/>
<text text-anchor="middle" x="385" y="-231.5" font-family="sans" font-size="10.00">fastqc_trimmed</text>
</g>
<!-- 5&#45;&gt;10 -->
<g id="edge18" class="edge">
<title>5&#45;&gt;10</title>
<path fill="none" stroke="grey" stroke-width="2" d="M269.46,-431.71C296.44,-409.69 341.04,-369.06 365,-324 375.2,-304.83 380.21,-280.67 382.66,-262.36"/>
<polygon fill="grey" stroke="grey" stroke-width="2" points="386.15,-262.68 383.83,-252.34 379.2,-261.86 386.15,-262.68"/>
</g>
<!-- 6 -->
<g id="node7" class="node">
<title>6</title>
<path fill="none" stroke="#afd856" stroke-width="2" d="M279.5,-540C279.5,-540 214.5,-540 214.5,-540 208.5,-540 202.5,-534 202.5,-528 202.5,-528 202.5,-516 202.5,-516 202.5,-510 208.5,-504 214.5,-504 214.5,-504 279.5,-504 279.5,-504 285.5,-504 291.5,-510 291.5,-516 291.5,-516 291.5,-528 291.5,-528 291.5,-534 285.5,-540 279.5,-540"/>
<text text-anchor="middle" x="247" y="-519.5" font-family="sans" font-size="10.00">bbduk_adapter</text>
</g>
<!-- 6&#45;&gt;5 -->
<g id="edge15" class="edge">
<title>6&#45;&gt;5</title>
<path fill="none" stroke="grey" stroke-width="2" d="M247,-503.7C247,-495.98 247,-486.71 247,-478.11"/>
<polygon fill="grey" stroke="grey" stroke-width="2" points="250.5,-478.1 247,-468.1 243.5,-478.1 250.5,-478.1"/>
</g>
<!-- 7&#45;&gt;0 -->
<g id="edge8" class="edge">
<title>7&#45;&gt;0</title>
<path fill="none" stroke="grey" stroke-width="2" d="M218.05,-287.81C239.89,-248.07 287.04,-147.49 253,-72 247.59,-60 237.97,-49.63 228,-41.32"/>
<polygon fill="grey" stroke="grey" stroke-width="2" points="230.05,-38.48 220,-35.11 225.75,-44.01 230.05,-38.48"/>
</g>
<!-- 7&#45;&gt;3 -->
<g id="edge13" class="edge">
<title>7&#45;&gt;3</title>
<path fill="none" stroke="grey" stroke-width="2" d="M193.42,-287.7C186.34,-279.3 177.72,-269.07 169.95,-259.86"/>
<polygon fill="grey" stroke="grey" stroke-width="2" points="172.54,-257.49 163.42,-252.1 167.19,-262.01 172.54,-257.49"/>
</g>
<!-- 8&#45;&gt;0 -->
<g id="edge2" class="edge">
<title>8&#45;&gt;0</title>
<path fill="none" stroke="grey" stroke-width="2" d="M311.59,-287.88C314.52,-246.98 316.84,-141.84 272,-72 261.71,-55.97 244.65,-43.62 229.01,-34.9"/>
<polygon fill="grey" stroke="grey" stroke-width="2" points="230.51,-31.73 220.03,-30.18 227.26,-37.93 230.51,-31.73"/>
</g>
<!-- 9 -->
<g id="node10" class="node">
<title>9</title>
<path fill="none" stroke="#5682d8" stroke-width="2" d="M434,-108C434,-108 388,-108 388,-108 382,-108 376,-102 376,-96 376,-96 376,-84 376,-84 376,-78 382,-72 388,-72 388,-72 434,-72 434,-72 440,-72 446,-78 446,-84 446,-84 446,-96 446,-96 446,-102 440,-108 434,-108"/>
<text text-anchor="middle" x="411" y="-87.5" font-family="sans" font-size="10.00">fastqc_raw</text>
</g>
<!-- 9&#45;&gt;0 -->
<g id="edge9" class="edge">
<title>9&#45;&gt;0</title>
<path fill="none" stroke="grey" stroke-width="2" d="M375.98,-76.71C371.29,-75.1 366.53,-73.5 362,-72 316.56,-56.99 263.9,-40.65 229.6,-30.13"/>
<polygon fill="grey" stroke="grey" stroke-width="2" points="230.59,-26.77 220.01,-27.2 228.55,-33.47 230.59,-26.77"/>
</g>
<!-- 10&#45;&gt;0 -->
<g id="edge5" class="edge">
<title>10&#45;&gt;0</title>
<path fill="none" stroke="grey" stroke-width="2" d="M382.99,-215.54C378.38,-183.08 364.13,-113.03 324,-72 298.68,-46.11 259.01,-32.46 229.96,-25.54"/>
<polygon fill="grey" stroke="grey" stroke-width="2" points="230.68,-22.11 220.16,-23.36 229.16,-28.94 230.68,-22.11"/>
</g>
</g>
</svg>
